<svg id="Layer_1" data-name="Layer 1" xmlns="http://www.w3.org/2000/svg" viewBox="0 0 235.73 57.85"><defs><style>.cls-1{fill:#102541;}.cls-2{fill:#fd5e16;}.cls-3{fill:#002040;}.cls-4{fill:#ff5e00;}</style></defs><path class="cls-1" d="M63.19,26.39V21.54h20.9v4.85h-7.5V46.26H70.7V26.39Z" transform="translate(-1 -1)"/><path class="cls-1" d="M87,46.26V21.54H97.24a10.82,10.82,0,0,1,4.8,1,7.31,7.31,0,0,1,3.12,2.85,8.49,8.49,0,0,1,1.1,4.39,8.16,8.16,0,0,1-1.12,4.37A7.24,7.24,0,0,1,102,36.87a11.85,11.85,0,0,1-4.89.93H90.6V33.09H96a6.43,6.43,0,0,0,2.26-.35,2.77,2.77,0,0,0,1.38-1.09,3.36,3.36,0,0,0,.47-1.88,3.48,3.48,0,0,0-.47-1.9,2.82,2.82,0,0,0-1.39-1.13A5.75,5.75,0,0,0,96,26.36H93v19.9ZM101,35l6.15,11.3h-6.52l-6-11.3Z" transform="translate(-1 -1)"/><path class="cls-1" d="M114.88,46.26h-6.43l8.35-24.72h8l8.35,24.72h-6.43l-5.8-18.49h-.2ZM114,36.53h13.43v4.54H114Z" transform="translate(-1 -1)"/><path class="cls-1" d="M156.81,21.54V46.26h-5.07L141.9,32h-.16V46.26h-6V21.54h5.14l9.73,14.24h.21V21.54Z" transform="translate(-1 -1)"/><path class="cls-1" d="M160.55,46.26V21.54h17.24v4.85H166.53v5.07h10.38v4.87H166.53v5.08h11.26v4.85Z" transform="translate(-1 -1)"/><path class="cls-2" d="M180.73,26.39V21.54h20.9v4.85h-7.5V46.26h-5.89V26.39Z" transform="translate(-1 -1)"/><path class="cls-2" d="M210.54,21.54V46.26h-6V21.54Z" transform="translate(-1 -1)"/><path class="cls-2" d="M236.73,30.5h-6a5.23,5.23,0,0,0-.5-1.68,3.77,3.77,0,0,0-1-1.28,4.21,4.21,0,0,0-1.45-.82,5.74,5.74,0,0,0-1.85-.28,5.36,5.36,0,0,0-3.1.88,5.54,5.54,0,0,0-2,2.55,10.31,10.31,0,0,0-.7,4,10.54,10.54,0,0,0,.71,4.12,5.37,5.37,0,0,0,2,2.5,5.45,5.45,0,0,0,3.05.84,6.09,6.09,0,0,0,1.81-.25,4.51,4.51,0,0,0,1.43-.74,4.1,4.1,0,0,0,1-1.2,5,5,0,0,0,.56-1.6l6,0a9.26,9.26,0,0,1-.95,3.23,10.38,10.38,0,0,1-2.17,2.91,10.12,10.12,0,0,1-3.35,2.08,13.23,13.23,0,0,1-10.53-.71,10.53,10.53,0,0,1-4.18-4.31A14.4,14.4,0,0,1,214,33.9,14.3,14.3,0,0,1,215.57,27a10.69,10.69,0,0,1,4.22-4.31,12.07,12.07,0,0,1,6-1.47,13.42,13.42,0,0,1,4.15.62,10.46,10.46,0,0,1,3.36,1.81,9.32,9.32,0,0,1,2.35,2.92A10.64,10.64,0,0,1,236.73,30.5Z" transform="translate(-1 -1)"/><path class="cls-3" d="M6.63,7.23l12,1.3,3.2-2.74-14.3.73h0L6.59,7A.14.14,0,0,0,6.63,7.23Z" transform="translate(-1 -1)"/><path class="cls-3" d="M23.54,10.22l-3.43,2.36,0,0L15.2,15a.14.14,0,0,0-.08.1l-.41,2a.14.14,0,0,1-.11.11l-.24.05a.17.17,0,0,1-.15-.06l-.9-1.32a.15.15,0,0,0-.09-.06l-4.34-1a.15.15,0,0,1-.07-.24l.59-.63a.16.16,0,0,1,.11-.05l4.27-.26.09,0,9.55-8.32c1.35-1,4-3.07,4.77-3.52a3.59,3.59,0,0,1,2.42-.43h.06c.28-.07,2.48-.59,2.74,0s-.65,2.21-1.7,3.08S27,7.77,26.5,8.08Z" transform="translate(-1 -1)"/><path class="cls-3" d="M26.62,8.58l-1.26,6a.1.1,0,0,1-.05.08l-1.1.44a.11.11,0,0,1-.11,0l-.29-.05a.15.15,0,0,1-.1-.21l.2-.17L24,14.6l.17-2.76v0l-.32-1.29Z" transform="translate(-1 -1)"/><path class="cls-3" d="M6.51,34.48c4.14-3,27.84-14.34,46.15-14.2,0,0-6.33,9-7.95,16l-37.82.18Z" transform="translate(-1 -1)"/><path class="cls-3" d="M6.35,33.71c4.57-2.93,18.76-10.07,34-13.2l-3.75-2.15A89.77,89.77,0,0,0,6.19,32.87Z" transform="translate(-1 -1)"/><path class="cls-3" d="M6.12,32C9.44,29.22,21,21.86,33.38,18.38l-3.27-1.47a63.47,63.47,0,0,0-23.89,14Z" transform="translate(-1 -1)"/><path class="cls-3" d="M6.24,30.12c4.13-4.18,12-9.61,17.69-11.63l-2.74-1s-7.12,2-14.85,10.81Z" transform="translate(-1 -1)"/><path class="cls-3" d="M8.8,24.84c2.32-2.5,7.62-6.42,10.86-7.57l-3.42-.91a36.82,36.82,0,0,0-6,5.33Z" transform="translate(-1 -1)"/><path class="cls-4" d="M45.35,38.35a.15.15,0,0,0-.16.16A18.66,18.66,0,0,1,42,48.68a20.48,20.48,0,0,1-8,6.94,22.21,22.21,0,0,1-2.48,1,20.68,20.68,0,0,1-2.57.68,19.81,19.81,0,0,1-2.64.32c-.44,0-.89,0-1.33,0s-.89,0-1.33-.06a22.12,22.12,0,0,1-9.94-3,21.6,21.6,0,0,1-4.21-4,19,19,0,0,1-1.92-2.85,21.23,21.23,0,0,1-1.4-3.16,23.76,23.76,0,0,1-.37-13.74h0a.2.2,0,0,0-.13-.24.19.19,0,0,0-.25.12,22.8,22.8,0,0,0-1.07,7,23.37,23.37,0,0,0,.7,5.94c-.19-.55-.37-1.1-.52-1.67a22.74,22.74,0,0,1-.76-5.17A23.41,23.41,0,0,1,5.89,26.79a28.48,28.48,0,0,1,2.57-4.57c.5-.73,1-1.43,1.58-2.1.28-.34.57-.67.86-1,.14-.16.29-.32.44-.47l.43-.43h0l0,0A1.31,1.31,0,0,0,10,16.33c-.21.2-.36.36-.53.55L9,17.42c-.31.36-.61.73-.91,1.1-.58.75-1.13,1.52-1.65,2.32a31.71,31.71,0,0,0-2.67,5,26.57,26.57,0,0,0-1.86,6.8A25.16,25.16,0,0,1,5.33,20.4.29.29,0,0,0,5.24,20a.26.26,0,0,0-.37.09A26.57,26.57,0,0,0,3.43,45c.13.29.27.57.41.85a22.37,22.37,0,0,0,5.88,7.87,20.45,20.45,0,0,1-4.37-3.83c-.23-.24-.4-.5-.6-.75s-.4-.51-.59-.77l-.52-.81-.27-.4-.24-.42-.47-.84c-.15-.28-.28-.58-.43-.87-.29-.57-.51-1.18-.77-1.77v0a.24.24,0,0,0-.44.19c.24.6.45,1.23.74,1.82.14.3.27.6.42.9l.46.87.24.43.26.42.53.84c.18.27.39.53.58.8s.38.55.6.79a21.6,21.6,0,0,0,6.06,5.07,26.42,26.42,0,0,0,7.41,2.73,25.2,25.2,0,0,0,5.24.76,21.13,21.13,0,0,0,2.25,0h.41a.76.76,0,0,0,.26-.06A21.5,21.5,0,0,0,42.54,49a19.13,19.13,0,0,0,3-10.51A.16.16,0,0,0,45.35,38.35Z" transform="translate(-1 -1)"/><path class="cls-4" d="M43.83,43.1H8a18.41,18.41,0,0,0,2.66,5.27H41.17A18.93,18.93,0,0,0,43.83,43.1Z" transform="translate(-1 -1)"/><path class="cls-4" d="M44.66,38.73c0-.44.05-.88.05-1.33H7.14c0,.45,0,.89.06,1.33Z" transform="translate(-1 -1)"/><path class="cls-4" d="M7.25,39.42a19.38,19.38,0,0,0,.57,3H44a18.25,18.25,0,0,0,.57-3Z" transform="translate(-1 -1)"/><path class="cls-4" d="M11.21,49.06a18.77,18.77,0,0,0,29.43,0Z" transform="translate(-1 -1)"/></svg>